<svg version="1.1" width="512" height="512" viewBox="0 0 24 24" xmlns="http://www.w3.org/2000/svg" xmlns:xlink="http://www.w3.org/1999/xlink" id="Layer_1" overflow="hidden"><style>
.MsftOfcThm_Background2_Fill_v2 {
 fill:#660099; 
}
</style>
<path d=" M 23 22 L 5 22 C 3.34315 22 2 20.6569 2 19 L 2 1 C 2 0.447715 1.55228 -2.22045e-16 1 -2.22045e-16 C 0.447715 -4.44089e-16 -1.11022e-16 0.447715 -1.11022e-16 1 L 0 19 C 0.00330612 21.7601 2.23995 23.9967 5 24 L 23 24 C 23.5523 24 24 23.5523 24 23 C 24 22.4477 23.5523 22 23 22 Z" stroke="none" stroke-width="1" stroke-dasharray="" stroke-dashoffset="1" fill="#660099" fill-opacity="1"/><path d=" M 6 20 C 6.55228 20 7 19.5523 7 19 L 7 12 C 7 11.4477 6.55228 11 6 11 C 5.44772 11 5 11.4477 5 12 L 5 19 C 5 19.5523 5.44772 20 6 20 Z" stroke="none" stroke-width="1" stroke-dasharray="" stroke-dashoffset="1" fill="#660099" fill-opacity="1"/><path d=" M 10 10 L 10 19 C 10 19.5523 10.4477 20 11 20 C 11.5523 20 12 19.5523 12 19 L 12 10 C 12 9.44771 11.5523 9 11 9 C 10.4477 9 10 9.44771 10 10 Z" stroke="none" stroke-width="1" stroke-dasharray="" stroke-dashoffset="1" fill="#660099" fill-opacity="1"/><path d=" M 15 13 L 15 19 C 15 19.5523 15.4477 20 16 20 C 16.5523 20 17 19.5523 17 19 L 17 13 C 17 12.4477 16.5523 12 16 12 C 15.4477 12 15 12.4477 15 13 Z" stroke="none" stroke-width="1" stroke-dasharray="" stroke-dashoffset="1" fill="#660099" fill-opacity="1"/><path d=" M 20 9 L 20 19 C 20 19.5523 20.4477 20 21 20 C 21.5523 20 22 19.5523 22 19 L 22 9 C 22 8.44771 21.5523 8 21 8 C 20.4477 8 20 8.44771 20 9 Z" stroke="none" stroke-width="1" stroke-dasharray="" stroke-dashoffset="1" fill="#660099" fill-opacity="1"/><path d=" M 6 9 C 6.26519 8.99994 6.51951 8.89455 6.707 8.707 L 10.293 5.121 C 10.6889 4.74386 11.3111 4.74386 11.707 5.121 L 13.879 7.293 C 15.0505 8.46415 16.9495 8.46415 18.121 7.293 L 23.707 1.707 C 24.0907 1.30975 24.0797 0.676679 23.6824 0.293 C 23.2949 -0.0812824 22.6805 -0.0812824 22.293 0.293 L 16.707 5.878 C 16.3165 6.26838 15.6835 6.26838 15.293 5.878 L 13.121 3.707 C 11.9495 2.53585 10.0505 2.53585 8.879 3.707 L 5.293 7.293 C 4.90253 7.68358 4.90263 8.31675 5.29321 8.70721 C 5.48069 8.89463 5.73491 8.99994 6 9 Z" stroke="none" stroke-width="1" stroke-dasharray="" stroke-dashoffset="1" fill="#660099" fill-opacity="1"/></svg>